<?xml version="1.0" encoding="UTF-8" standalone="no"?>
<!-- Created with Inkscape (http://www.inkscape.org/) -->

<svg
   xmlns:dc="http://purl.org/dc/elements/1.1/"
   xmlns:cc="http://creativecommons.org/ns#"
   xmlns:rdf="http://www.w3.org/1999/02/22-rdf-syntax-ns#"
   xmlns:svg="http://www.w3.org/2000/svg"
   xmlns="http://www.w3.org/2000/svg"
   xmlns:sodipodi="http://sodipodi.sourceforge.net/DTD/sodipodi-0.dtd"
   xmlns:inkscape="http://www.inkscape.org/namespaces/inkscape"
   id="svg2"
   version="1.1"
   inkscape:version="0.48.3.1 r9886"
   width="1052.3625"
   height="212.5"
   xml:space="preserve"
   sodipodi:docname="New document 1"><metadata
     id="metadata8"><rdf:RDF><cc:Work
         rdf:about=""><dc:format>image/svg+xml</dc:format><dc:type
           rdf:resource="http://purl.org/dc/dcmitype/StillImage" /><dc:title></dc:title></cc:Work></rdf:RDF></metadata><defs
     id="defs6"><clipPath
       clipPathUnits="userSpaceOnUse"
       id="clipPath16"><path
         d="m 0,170 841.89,0 0,-170 L 0,0 0,170 z"
         id="path18" /></clipPath></defs><sodipodi:namedview
     pagecolor="#ffffff"
     bordercolor="#666666"
     borderopacity="1"
     objecttolerance="10"
     gridtolerance="10"
     guidetolerance="10"
     inkscape:pageopacity="0"
     inkscape:pageshadow="2"
     inkscape:window-width="843"
     inkscape:window-height="672"
     id="namedview4"
     showgrid="false"
     inkscape:zoom="0.38294787"
     inkscape:cx="526.18127"
     inkscape:cy="106.25"
     inkscape:window-x="548"
     inkscape:window-y="229"
     inkscape:window-maximized="0"
     inkscape:current-layer="g10" /><g
     id="g10"
     inkscape:groupmode="layer"
     inkscape:label="Logo-UPC-VILANOVA"
     transform="matrix(1.25,0,0,-1.25,0,212.5)"><g
       id="g12"><g
         id="g14"
         clip-path="url(#clipPath16)"><g
           id="g20"
           transform="translate(46.0874,98.5049)"><path
             d="M 0,0 C 0,27.159 22.012,49.174 49.163,49.174 76.317,49.174 98.327,27.159 98.327,0 98.327,-27.156 76.317,-49.174 49.163,-49.174 22.012,-49.174 0,-27.156 0,0"
             style="fill:#2b94c9;fill-opacity:1;fill-rule:evenodd;stroke:none"
             id="path22" /></g><g
           id="g24"
           transform="translate(46.0874,98.5049)"><path
             d="M 0,0 C 0,27.159 22.012,49.174 49.163,49.174 76.317,49.174 98.327,27.159 98.327,0 98.327,-27.156 76.317,-49.174 49.163,-49.174 22.012,-49.174 0,-27.156 0,0 z"
             style="fill:none;stroke:none"
             id="path26" /></g><g
           id="g28"
           transform="translate(94.5811,72.752)"><path
             d="m 0,0 0,3.805 1.828,0 C 3.143,3.805 3.53,2.948 3.562,1.961 3.597,0.952 3.095,0 1.876,0 L 0,0 z m -4.168,-8.886 4.12,0 0,5.316 1.363,-0.028 c 2.634,0 3.656,0.246 4.558,0.879 1.364,0.952 2.119,2.559 2.119,4.486 0,3.581 -2.044,5.582 -5.361,5.582 l -6.799,0 0,-16.235 z"
             style="fill:#ffffff;fill-opacity:1;fill-rule:evenodd;stroke:none"
             id="path30" /></g><g
           id="g32"
           transform="translate(117.4097,64.4531)"><path
             d="m 0,0 c -1.548,-0.761 -2.434,-0.977 -3.928,-0.977 -4.897,0 -8.358,3.485 -8.358,8.432 0,4.899 3.533,8.534 8.31,8.534 1.47,0 2.42,-0.24 3.976,-1.003 l 0,-4.249 c -1.612,1.348 -2.247,1.255 -3.515,1.255 -2.46,0 -4.165,-1.879 -4.165,-4.537 0,-2.679 1.729,-4.53 4.192,-4.53 1.329,0 1.996,0.173 3.488,1.283 L 0,0 z"
             style="fill:#ffffff;fill-opacity:1;fill-rule:evenodd;stroke:none"
             id="path34" /></g><g
           id="g36"
           transform="translate(79.5337,67.4258)"><path
             d="M 0,0 C 0.651,0.008 1.075,0.139 1.577,0.555 2.303,1.158 2.394,1.889 2.41,2.826 l 0,9.849 4.723,0 0,-9.873 c 0,-1.724 -0.062,-3.848 -2.33,-5.449 -1.475,-1.046 -3.226,-1.259 -4.806,-1.259 -1.582,0 -3.332,0.213 -4.811,1.259 -2.266,1.601 -2.327,3.725 -2.327,5.449 l 0,9.873 4.724,0 0,-9.849 C -2.404,1.889 -2.311,1.158 -1.585,0.555 -1.081,0.139 -0.654,0.008 0,0"
             style="fill:#ffffff;fill-opacity:1;fill-rule:evenodd;stroke:none"
             id="path38" /></g><g
           id="g40"
           transform="translate(71.3735,126.7793)"><path
             d="m 0,0 c 0,3.876 3.144,7.02 7.018,7.02 3.878,0 7.018,-3.144 7.018,-7.02 0,-3.877 -3.14,-7.02 -7.018,-7.02 C 3.144,-7.02 0,-3.877 0,0"
             style="fill:#ffffff;fill-opacity:1;fill-rule:evenodd;stroke:none"
             id="path42" /></g><g
           id="g44"
           transform="translate(71.3735,110.1436)"><path
             d="m 0,0 c 0,3.876 3.144,7.019 7.018,7.019 3.878,0 7.018,-3.143 7.018,-7.019 0,-3.878 -3.14,-7.02 -7.018,-7.02 C 3.144,-7.02 0,-3.878 0,0"
             style="fill:#ffffff;fill-opacity:1;fill-rule:evenodd;stroke:none"
             id="path46" /></g><g
           id="g48"
           transform="translate(71.3735,93.0674)"><path
             d="m 0,0 c 0,3.876 3.144,7.02 7.018,7.02 3.878,0 7.018,-3.144 7.018,-7.02 0,-3.877 -3.14,-7.019 -7.018,-7.019 C 3.144,-7.019 0,-3.877 0,0"
             style="fill:#ffffff;fill-opacity:1;fill-rule:evenodd;stroke:none"
             id="path50" /></g><g
           id="g52"
           transform="translate(88.4302,126.7793)"><path
             d="m 0,0 c 0,3.876 3.141,7.02 7.018,7.02 3.875,0 7.018,-3.144 7.018,-7.02 0,-3.877 -3.143,-7.02 -7.018,-7.02 C 3.141,-7.02 0,-3.877 0,0"
             style="fill:#ffffff;fill-opacity:1;fill-rule:evenodd;stroke:none"
             id="path54" /></g><g
           id="g56"
           transform="translate(88.4302,110.1436)"><path
             d="m 0,0 c 0,3.876 3.141,7.019 7.018,7.019 3.875,0 7.018,-3.143 7.018,-7.019 0,-3.878 -3.143,-7.02 -7.018,-7.02 C 3.141,-7.02 0,-3.878 0,0"
             style="fill:#ffffff;fill-opacity:1;fill-rule:evenodd;stroke:none"
             id="path58" /></g><g
           id="g60"
           transform="translate(88.4302,93.0674)"><path
             d="m 0,0 c 0,3.876 3.141,7.02 7.018,7.02 3.875,0 7.018,-3.144 7.018,-7.02 0,-3.877 -3.143,-7.019 -7.018,-7.019 C 3.141,-7.019 0,-3.877 0,0"
             style="fill:#ffffff;fill-opacity:1;fill-rule:evenodd;stroke:none"
             id="path62" /></g><g
           id="g64"
           transform="translate(105.0918,126.7793)"><path
             d="m 0,0 c 0,3.876 3.144,7.02 7.018,7.02 3.878,0 7.018,-3.144 7.018,-7.02 0,-3.877 -3.14,-7.02 -7.018,-7.02 C 3.144,-7.02 0,-3.877 0,0"
             style="fill:#ffffff;fill-opacity:1;fill-rule:evenodd;stroke:none"
             id="path66" /></g><g
           id="g68"
           transform="translate(105.0918,110.1436)"><path
             d="m 0,0 c 0,3.876 3.144,7.019 7.018,7.019 3.878,0 7.018,-3.143 7.018,-7.019 0,-3.878 -3.14,-7.02 -7.018,-7.02 C 3.144,-7.02 0,-3.878 0,0"
             style="fill:#ffffff;fill-opacity:1;fill-rule:evenodd;stroke:none"
             id="path70" /></g><g
           id="g72"
           transform="translate(105.0918,93.0674)"><path
             d="m 0,0 c 0,3.876 3.144,7.02 7.018,7.02 3.878,0 7.018,-3.144 7.018,-7.02 0,-3.877 -3.14,-7.019 -7.018,-7.019 C 3.144,-7.019 0,-3.877 0,0"
             style="fill:#ffffff;fill-opacity:1;fill-rule:evenodd;stroke:none"
             id="path74" /></g><g
           id="g76"
           transform="translate(274.458,28.4238)"><path
             d="m 0,0 c 0,-1.996 -0.539,-3.515 -1.62,-4.55 -1.078,-1.035 -2.617,-1.553 -4.616,-1.553 -2.084,0 -3.691,0.504 -4.814,1.507 -1.126,1.009 -1.686,2.541 -1.686,4.596 l 0,10.118 2.108,0 0,-10.118 c 0,-1.403 0.376,-2.477 1.131,-3.219 0.755,-0.738 1.841,-1.109 3.261,-1.109 1.331,0 2.353,0.371 3.063,1.109 0.71,0.742 1.065,1.816 1.065,3.219 l 0,10.118 2.108,0 L 0,0 z"
             style="fill:#2b94c9;fill-opacity:1;fill-rule:evenodd;stroke:none"
             id="path78" /></g><g
           id="g80"
           transform="translate(279.9097,38.542)"><path
             d="M 0,0 2.241,0 10.585,-12.849 10.631,0 l 1.996,0 0,-15.845 -2.319,0 L 2.042,-3.153 1.999,-15.845 0,-15.845 0,0 z"
             style="fill:#2b94c9;fill-opacity:1;fill-rule:evenodd;stroke:none"
             id="path82" /></g><path
           d="m 298.143,38.542 2.108,0 0,-15.845 -2.108,0 0,15.845 z"
           style="fill:#2b94c9;fill-opacity:1;fill-rule:evenodd;stroke:none"
           id="path84" /><g
           id="g86"
           transform="translate(312.1416,22.6973)"><path
             d="m 0,0 -2.399,0 -5.59,15.845 2.281,0 4.523,-13.745 4.63,13.745 2.191,0 L 0,0 z"
             style="fill:#2b94c9;fill-opacity:1;fill-rule:evenodd;stroke:none"
             id="path88" /></g><g
           id="g90"
           transform="translate(321.5586,38.542)"><path
             d="m 0,0 10.938,0 0,-1.774 -8.83,0 0,-5.039 8.232,0 0,-1.774 -8.232,0 0,-5.48 8.897,0 0,-1.778 L 0,-15.845 0,0 z"
             style="fill:#2b94c9;fill-opacity:1;fill-rule:evenodd;stroke:none"
             id="path92" /></g><g
           id="g94"
           transform="translate(337.209,38.542)"><path
             d="m 0,0 7.456,0 c 1.494,0 2.671,-0.368 3.53,-1.109 0.857,-0.74 1.286,-1.751 1.286,-3.04 0,-1.022 -0.227,-1.878 -0.678,-2.575 -0.45,-0.694 -1.141,-1.174 -2.073,-1.441 0.843,-0.176 1.428,-0.544 1.753,-1.1 0.326,-0.554 0.523,-1.256 0.598,-2.107 0.075,-0.849 0.141,-1.668 0.2,-2.453 0.12,-0.872 0.371,-1.545 0.755,-2.02 l -2.353,0 c -0.235,0.254 -0.374,0.881 -0.411,1.89 -0.035,1.003 -0.091,1.676 -0.166,2.017 -0.162,1.185 -0.461,1.959 -0.899,2.319 -0.435,0.362 -1.017,0.544 -1.743,0.544 l -5.147,0 0,-6.77 -2.108,0 L 0,0 z m 6.503,-7.301 c 1.14,0 2.034,0.2 2.685,0.601 0.65,0.397 0.976,1.139 0.976,2.218 0,0.813 -0.232,1.467 -0.699,1.963 -0.467,0.497 -1.172,0.745 -2.119,0.745 l -5.238,0 0,-5.527 4.395,0 z"
             style="fill:#2b94c9;fill-opacity:1;fill-rule:evenodd;stroke:none"
             id="path96" /></g><g
           id="g98"
           transform="translate(363.6719,33.9043)"><path
             d="m 0,0 c -0.117,1.095 -0.52,1.911 -1.208,2.442 -0.687,0.531 -1.594,0.798 -2.72,0.798 -1.019,0 -1.865,-0.211 -2.54,-0.633 -0.673,-0.421 -1.009,-1.112 -1.009,-2.073 0,-0.859 0.347,-1.43 1.043,-1.722 0.694,-0.288 2.05,-0.658 4.062,-1.107 2.012,-0.453 3.354,-1.048 4.027,-1.787 0.672,-0.739 1.008,-1.665 1.008,-2.775 0,-1.553 -0.619,-2.728 -1.862,-3.528 -1.244,-0.798 -2.685,-1.198 -4.329,-1.198 -1.908,0 -3.476,0.478 -4.704,1.438 -1.227,0.956 -1.841,2.38 -1.841,4.264 l 1.996,0 c 0,-1.292 0.44,-2.27 1.321,-2.935 0.881,-0.662 1.98,-0.993 3.295,-0.993 1.14,0 2.095,0.219 2.863,0.657 0.769,0.434 1.153,1.179 1.153,2.23 0,1.124 -0.499,1.847 -1.497,2.173 -0.998,0.325 -2.35,0.675 -4.061,1.046 -1.708,0.368 -2.901,0.89 -3.573,1.563 -0.673,0.673 -1.009,1.511 -1.009,2.519 0,1.521 0.558,2.677 1.676,3.461 1.116,0.785 2.473,1.177 4.072,1.177 1.716,0 3.117,-0.421 4.206,-1.265 C 1.455,2.909 1.999,1.657 1.999,0 L 0,0 z"
             style="fill:#2b94c9;fill-opacity:1;fill-rule:evenodd;stroke:none"
             id="path100" /></g><path
           d="m 371.072,38.542 2.11,0 0,-15.845 -2.11,0 0,15.845 z"
           style="fill:#2b94c9;fill-opacity:1;fill-rule:evenodd;stroke:none"
           id="path102" /><g
           id="g104"
           transform="translate(382.4282,36.7676)"><path
             d="m 0,0 -5.28,0 0,1.774 12.672,0 0,-1.774 -5.284,0 0,-14.07 L 0,-14.07 0,0 z"
             style="fill:#2b94c9;fill-opacity:1;fill-rule:evenodd;stroke:none"
             id="path106" /></g><g
           id="g108"
           transform="translate(396.3843,29.2451)"><path
             d="M 0,0 5.38,0 2.738,7.371 0,0 z m 1.583,9.297 2.332,0 6.19,-15.845 -2.358,0 -1.697,4.772 -6.719,0 -1.746,-4.772 -2.193,0 6.191,15.845 z"
             style="fill:#2b94c9;fill-opacity:1;fill-rule:evenodd;stroke:none"
             id="path110" /></g><g
           id="g112"
           transform="translate(413.7319,36.7676)"><path
             d="m 0,0 -5.281,0 0,1.774 12.673,0 0,-1.774 -5.284,0 0,-14.07 L 0,-14.07 0,0 z"
             style="fill:#2b94c9;fill-opacity:1;fill-rule:evenodd;stroke:none"
             id="path114" /></g><g
           id="g116"
           transform="translate(435.3145,30.9531)"><path
             d="m 0,0 4.127,0 c 2.309,0 3.465,0.969 3.465,2.909 0,0.96 -0.283,1.687 -0.846,2.172 C 6.186,5.572 5.313,5.814 4.127,5.814 L 0,5.814 0,0 z m -2.107,7.589 6.945,0 c 1.568,0 2.771,-0.41 3.607,-1.23 C 9.281,5.537 9.699,4.387 9.699,2.909 9.699,1.428 9.281,0.277 8.445,-0.544 7.609,-1.366 6.406,-1.774 4.838,-1.774 l -4.838,0 0,-6.482 -2.107,0 0,15.845 z"
             style="fill:#2b94c9;fill-opacity:1;fill-rule:evenodd;stroke:none"
             id="path118" /></g><g
           id="g120"
           transform="translate(456.3848,24.0957)"><path
             d="M 0,0 C 1.803,0 3.17,0.641 4.094,1.921 5.02,3.199 5.48,4.733 5.48,6.526 5.48,8.314 5.02,9.852 4.094,11.13 3.17,12.408 1.803,13.049 0,13.049 -1.805,13.049 -3.17,12.408 -4.094,11.13 -5.02,9.852 -5.48,8.314 -5.48,6.526 -5.48,4.733 -5.02,3.199 -4.094,1.921 -3.17,0.641 -1.805,0 0,0 m 0,14.825 c 2.396,0 4.262,-0.805 5.592,-2.42 C 6.924,10.794 7.588,8.832 7.588,6.526 7.588,4.216 6.924,2.257 5.592,0.646 4.262,-0.969 2.396,-1.774 0,-1.774 c -2.396,0 -4.262,0.805 -5.594,2.42 -1.328,1.611 -1.996,3.57 -1.996,5.88 0,2.306 0.668,4.268 1.996,5.879 1.332,1.615 3.198,2.42 5.594,2.42"
             style="fill:#2b94c9;fill-opacity:1;fill-rule:evenodd;stroke:none"
             id="path122" /></g><g
           id="g124"
           transform="translate(468.6289,38.542)"><path
             d="m 0,0 2.109,0 0,-14.067 8.387,0 0,-1.778 L 0,-15.845 0,0 z"
             style="fill:#2b94c9;fill-opacity:1;fill-rule:evenodd;stroke:none"
             id="path126" /></g><path
           d="m 483.156,38.542 2.109,0 0,-15.845 -2.109,0 0,15.845 z"
           style="fill:#2b94c9;fill-opacity:1;fill-rule:evenodd;stroke:none"
           id="path128" /><g
           id="g130"
           transform="translate(494.5137,36.7676)"><path
             d="m 0,0 -5.283,0 0,1.774 12.672,0 0,-1.774 -5.282,0 0,-14.07 L 0,-14.07 0,0 z"
             style="fill:#2b94c9;fill-opacity:1;fill-rule:evenodd;stroke:none"
             id="path132" /></g><g
           id="g134"
           transform="translate(507.832,42.8496)"><path
             d="m 0,0 2.42,0 1.908,-3.176 -1.42,0 L 0,0 z m -2.086,-4.308 10.94,0 0,-1.774 -8.833,0 0,-5.038 8.235,0 0,-1.775 -8.235,0 0,-5.48 8.899,0 0,-1.777 -11.006,0 0,15.844 z"
             style="fill:#2b94c9;fill-opacity:1;fill-rule:evenodd;stroke:none"
             id="path136" /></g><g
           id="g138"
           transform="translate(532.5391,33.9043)"><path
             d="m 0,0 c -0.221,1.052 -0.729,1.854 -1.521,2.41 -0.793,0.552 -1.764,0.83 -2.917,0.83 -1.791,0 -3.132,-0.614 -4.029,-1.842 -0.894,-1.227 -1.342,-2.751 -1.342,-4.571 0,-1.953 0.448,-3.546 1.342,-4.781 0.897,-1.235 2.246,-1.855 4.051,-1.855 1.377,0 2.48,0.416 3.316,1.246 0.836,0.831 1.254,1.903 1.254,3.215 l 2.11,0 C 2.055,-7.312 1.361,-8.84 0.176,-9.937 c -1.182,-1.096 -2.772,-1.646 -4.772,-1.646 -2.367,0 -4.177,0.77 -5.435,2.308 -1.256,1.537 -1.887,3.522 -1.887,5.948 0,2.409 0.66,4.405 1.975,5.979 1.316,1.576 3.16,2.365 5.527,2.365 1.715,0 3.172,-0.438 4.371,-1.307 C 1.152,2.837 1.871,1.602 2.107,0 L 0,0 z"
             style="fill:#2b94c9;fill-opacity:1;fill-rule:evenodd;stroke:none"
             id="path140" /></g><g
           id="g142"
           transform="translate(539.498,38.542)"><path
             d="M 0,0 2.242,0 10.586,-12.849 10.631,0 l 1.996,0 0,-15.845 -2.318,0 L 2.041,-3.153 1.998,-15.845 0,-15.845 0,0 z"
             style="fill:#2b94c9;fill-opacity:1;fill-rule:evenodd;stroke:none"
             id="path144" /></g><path
           d="m 557.732,38.542 2.107,0 0,-15.845 -2.107,0 0,15.845 z"
           style="fill:#2b94c9;fill-opacity:1;fill-rule:evenodd;stroke:none"
           id="path146" /><g
           id="g148"
           transform="translate(576.6348,33.9043)"><path
             d="m 0,0 c -0.225,1.052 -0.73,1.854 -1.521,2.41 -0.792,0.552 -1.764,0.83 -2.918,0.83 -1.79,0 -3.133,-0.614 -4.028,-1.842 -0.894,-1.227 -1.342,-2.751 -1.342,-4.571 0,-1.953 0.448,-3.546 1.342,-4.781 0.895,-1.235 2.244,-1.855 4.051,-1.855 1.375,0 2.482,0.416 3.316,1.246 0.836,0.831 1.254,1.903 1.254,3.215 l 2.11,0 C 2.055,-7.312 1.361,-8.84 0.176,-9.937 c -1.184,-1.096 -2.772,-1.646 -4.772,-1.646 -2.365,0 -4.177,0.77 -5.435,2.308 -1.258,1.537 -1.887,3.522 -1.887,5.948 0,2.409 0.658,4.405 1.975,5.979 1.316,1.576 3.16,2.365 5.527,2.365 1.715,0 3.172,-0.438 4.371,-1.307 C 1.152,2.837 1.871,1.602 2.107,0 L 0,0 z"
             style="fill:#2b94c9;fill-opacity:1;fill-rule:evenodd;stroke:none"
             id="path150" /></g><g
           id="g152"
           transform="translate(586.3379,29.2451)"><path
             d="M 0,0 5.379,0 2.738,7.371 0,0 z m 1.584,9.297 2.33,0 6.191,-15.845 -2.359,0 -1.697,4.772 -6.719,0 -1.746,-4.772 -2.193,0 6.193,15.845 z"
             style="fill:#2b94c9;fill-opacity:1;fill-rule:evenodd;stroke:none"
             id="path154" /></g><g
           id="g156"
           transform="translate(610.4414,24.4746)"><path
             d="M 0,0 3.506,0 C 4.793,0 6.002,0.405 7.133,1.219 8.264,2.033 8.83,3.703 8.83,6.233 8.83,8.219 8.422,9.724 7.6,10.751 6.777,11.778 5.428,12.293 3.549,12.293 L 0,12.293 0,0 z m -2.107,14.067 5.435,0 c 2.486,0 4.375,-0.624 5.67,-1.873 1.295,-1.251 1.94,-3.14 1.94,-5.67 C 10.938,3.8 10.322,1.737 9.086,0.331 7.852,-1.073 5.932,-1.777 3.328,-1.777 l -5.435,0 0,15.844 z"
             style="fill:#2b94c9;fill-opacity:1;fill-rule:evenodd;stroke:none"
             id="path158" /></g><g
           id="g160"
           transform="translate(626.0234,38.542)"><path
             d="m 0,0 10.939,0 0,-1.774 -8.832,0 0,-5.039 8.233,0 0,-1.774 -8.233,0 0,-5.48 8.897,0 0,-1.778 L 0,-15.845 0,0 z"
             style="fill:#2b94c9;fill-opacity:1;fill-rule:evenodd;stroke:none"
             id="path162" /></g><g
           id="g164"
           transform="translate(661.0547,33.9043)"><path
             d="m 0,0 c -0.223,1.052 -0.729,1.854 -1.521,2.41 -0.792,0.552 -1.764,0.83 -2.918,0.83 -1.79,0 -3.131,-0.614 -4.03,-1.842 -0.892,-1.227 -1.342,-2.751 -1.342,-4.571 0,-1.953 0.45,-3.546 1.342,-4.781 0.899,-1.235 2.248,-1.855 4.051,-1.855 1.377,0 2.482,0.416 3.318,1.246 0.838,0.831 1.254,1.903 1.254,3.215 l 2.108,0 C 2.057,-7.312 1.359,-8.84 0.178,-9.937 c -1.186,-1.096 -2.776,-1.646 -4.772,-1.646 -2.367,0 -4.181,0.77 -5.437,2.308 -1.258,1.537 -1.887,3.522 -1.887,5.948 0,2.409 0.658,4.405 1.975,5.979 1.318,1.576 3.16,2.365 5.525,2.365 1.717,0 3.174,-0.438 4.371,-1.307 C 1.152,2.837 1.869,1.602 2.107,0 L 0,0 z"
             style="fill:#2b94c9;fill-opacity:1;fill-rule:evenodd;stroke:none"
             id="path166" /></g><g
           id="g168"
           transform="translate(670.7559,29.2451)"><path
             d="M 0,0 5.381,0 2.738,7.371 0,0 z m 1.586,9.297 2.328,0 6.195,-15.845 -2.359,0 -1.701,4.772 -6.719,0 -1.744,-4.772 -2.191,0 6.191,15.845 z"
             style="fill:#2b94c9;fill-opacity:1;fill-rule:evenodd;stroke:none"
             id="path170" /></g><g
           id="g172"
           transform="translate(688.1074,36.7676)"><path
             d="m 0,0 -5.281,0 0,1.774 12.672,0 0,-1.774 -5.284,0 0,-14.07 L 0,-14.07 0,0 z"
             style="fill:#2b94c9;fill-opacity:1;fill-rule:evenodd;stroke:none"
             id="path174" /></g><g
           id="g176"
           transform="translate(702.0625,29.2451)"><path
             d="M 0,0 5.379,0 2.738,7.371 0,0 z m 1.582,9.297 2.33,0 6.193,-15.845 -2.359,0 -1.699,4.772 -6.719,0 -1.746,-4.772 -2.191,0 6.191,15.845 z"
             style="fill:#2b94c9;fill-opacity:1;fill-rule:evenodd;stroke:none"
             id="path178" /></g><g
           id="g180"
           transform="translate(715.8164,38.542)"><path
             d="m 0,0 2.107,0 0,-14.067 8.389,0 0,-1.778 L 0,-15.845 0,0 z"
             style="fill:#2b94c9;fill-opacity:1;fill-rule:evenodd;stroke:none"
             id="path182" /></g><g
           id="g184"
           transform="translate(742.9023,28.4238)"><path
             d="m 0,0 c 0,-1.996 -0.539,-3.515 -1.619,-4.55 -1.078,-1.035 -2.617,-1.553 -4.617,-1.553 -2.084,0 -3.69,0.504 -4.813,1.507 -1.127,1.009 -1.687,2.541 -1.687,4.596 l 0,10.118 2.109,0 0,-10.118 c 0,-1.403 0.375,-2.477 1.131,-3.219 0.756,-0.738 1.842,-1.109 3.26,-1.109 1.332,0 2.353,0.371 3.064,1.109 0.709,0.742 1.065,1.816 1.065,3.219 l 0,10.118 2.107,0 L 0,0 z"
             style="fill:#2b94c9;fill-opacity:1;fill-rule:evenodd;stroke:none"
             id="path186" /></g><g
           id="g188"
           transform="translate(748.3555,38.542)"><path
             d="M 0,0 2.24,0 10.584,-12.849 10.631,0 l 1.996,0 0,-15.845 -2.32,0 L 2.041,-3.153 1.998,-15.845 0,-15.845 0,0 z"
             style="fill:#2b94c9;fill-opacity:1;fill-rule:evenodd;stroke:none"
             id="path190" /></g><g
           id="g192"
           transform="translate(773.0449,29.1787)"><path
             d="m 0,0 0,-6.481 -2.107,0 0,6.481 -6.123,9.363 2.517,0 4.75,-7.546 4.617,7.546 2.407,0 L 0,0 z"
             style="fill:#2b94c9;fill-opacity:1;fill-rule:evenodd;stroke:none"
             id="path194" /></g><g
           id="g196"
           transform="translate(785.6973,29.2451)"><path
             d="M 0,0 5.379,0 2.738,7.371 0,0 z m 1.584,9.297 2.33,0 6.191,-15.845 -2.359,0 -1.697,4.772 -6.719,0 -1.746,-4.772 -2.193,0 6.193,15.845 z"
             style="fill:#2b94c9;fill-opacity:1;fill-rule:evenodd;stroke:none"
             id="path198" /></g><path
           d="m 261.833,142.211 533.598,0 0,-87.218 -533.598,0 0,87.218 z"
           style="fill:#2b94c9;fill-opacity:1;fill-rule:evenodd;stroke:none"
           id="path200" /><g
           id="g202"
           transform="translate(289.5454,84.6104)"><path
             d="m 0,0 c -1.131,0 -1.958,-0.405 -2.481,-1.217 -0.524,-0.813 -0.785,-1.833 -0.785,-3.057 0,-1.177 0.275,-2.189 0.825,-3.035 0.546,-0.845 1.36,-1.27 2.441,-1.27 1.131,0 1.945,0.405 2.441,1.22 0.497,0.811 0.747,1.846 0.747,3.108 0,1.228 -0.253,2.242 -0.757,3.045 C 1.924,-0.401 1.115,0 0,0 m 3.188,-9.278 c -0.432,-0.707 -1.008,-1.23 -1.723,-1.567 -0.718,-0.339 -1.516,-0.507 -2.399,-0.507 -1.9,0 -3.376,0.7 -4.432,2.098 -1.051,1.4 -1.58,3.095 -1.58,5.08 0,1.938 0.518,3.577 1.556,4.925 1.035,1.348 2.494,2.021 4.379,2.021 0.811,0 1.576,-0.148 2.294,-0.445 C 1.999,2.029 2.564,1.59 2.98,1.011 l 0.027,0 0,6.479 3.68,0 0,-18.478 -3.499,0 0,1.71 z"
             style="fill:#ffffff;fill-opacity:1;fill-rule:evenodd;stroke:none"
             id="path204" /></g><path
           d="m 300.62,92.101 2.772,0 0,-8.293 -2.772,0 0,8.293 z"
           style="fill:#ffffff;fill-opacity:1;fill-rule:evenodd;stroke:none"
           id="path206" /><g
           id="g208"
           transform="translate(308.1445,92.1006)"><path
             d="m 0,0 13.841,0 0,-3.421 -9.772,0 0,-3.94 8.966,0 0,-3.16 -8.966,0 0,-4.537 9.977,0 0,-3.421 L 0,-18.479 0,0 z"
             style="fill:#ffffff;fill-opacity:1;fill-rule:evenodd;stroke:none"
             id="path210" /></g><g
           id="g212"
           transform="translate(325.3374,87.0195)"><path
             d="m 0,0 3.501,0 0,-1.865 c 0.501,0.742 1.112,1.3 1.838,1.672 0.726,0.371 1.505,0.556 2.332,0.556 1.85,0 3.128,-0.467 3.838,-1.399 0.707,-0.933 1.062,-2.307 1.062,-4.121 l 0,-8.24 -3.68,0 0,7.567 c 0,2.193 -0.787,3.291 -2.359,3.291 -1.019,0 -1.75,-0.299 -2.191,-0.895 -0.44,-0.595 -0.659,-1.574 -0.659,-2.94 l 0,-7.023 -3.682,0 L 0,0 z"
             style="fill:#ffffff;fill-opacity:1;fill-rule:evenodd;stroke:none"
             id="path214" /></g><g
           id="g216"
           transform="translate(350.8848,80.4902)"><path
             d="M 0,0 C 0,1.209 -0.246,2.199 -0.736,2.968 -1.23,3.736 -2.028,4.12 -3.135,4.12 -4.101,4.12 -4.84,3.757 -5.35,3.031 -5.86,2.306 -6.116,1.398 -6.116,0.31 c 0,-1.122 0.235,-2.074 0.699,-2.85 0.467,-0.779 1.228,-1.166 2.282,-1.166 1.003,0 1.774,0.354 2.319,1.061 C -0.272,-1.938 0,-1.054 0,0 m 3.501,-6.078 c 0,-1.557 -0.475,-2.923 -1.427,-4.102 -0.95,-1.179 -2.789,-1.769 -5.519,-1.769 -1.54,0 -2.909,0.363 -4.109,1.089 -1.201,0.725 -1.801,1.798 -1.801,3.213 l 3.679,0 c 0.155,-0.638 0.478,-1.105 0.969,-1.399 0.491,-0.294 1.078,-0.44 1.767,-0.44 0.963,0 1.694,0.301 2.193,0.907 C -0.248,-7.974 0,-7.173 0,-6.169 l 0,1.761 c -0.414,-0.673 -0.985,-1.185 -1.71,-1.54 -0.726,-0.355 -1.511,-0.531 -2.357,-0.531 -1.902,0 -3.33,0.629 -4.29,1.889 -0.958,1.263 -1.439,2.877 -1.439,4.849 0,1.849 0.51,3.416 1.529,4.703 1.019,1.287 2.429,1.931 4.225,1.931 0.915,0 1.702,-0.168 2.358,-0.505 0.657,-0.337 1.201,-0.886 1.633,-1.646 L 0,6.323 l 3.501,0 0,-12.401 z"
             style="fill:#ffffff;fill-opacity:1;fill-rule:evenodd;stroke:none"
             id="path218" /></g><path
           d="m 361.908,89.067 -3.68,0 0,3.033 3.68,0 0,-3.033 z m -3.679,-2.254 3.68,0 0,-13.191 -3.68,0 0,13.191 z"
           style="fill:#ffffff;fill-opacity:1;fill-rule:evenodd;stroke:none"
           id="path220" /><g
           id="g222"
           transform="translate(365.5825,87.0195)"><path
             d="m 0,0 3.501,0 0,-1.865 c 0.502,0.742 1.113,1.3 1.839,1.672 0.725,0.371 1.505,0.556 2.332,0.556 1.849,0 3.127,-0.467 3.837,-1.399 0.707,-0.933 1.062,-2.307 1.062,-4.121 l 0,-8.24 -3.679,0 0,7.567 c 0,2.193 -0.788,3.291 -2.36,3.291 -1.019,0 -1.75,-0.299 -2.19,-0.895 -0.441,-0.595 -0.659,-1.574 -0.659,-2.94 l 0,-7.023 -3.683,0 L 0,0 z"
             style="fill:#ffffff;fill-opacity:1;fill-rule:evenodd;stroke:none"
             id="path224" /></g><g
           id="g226"
           transform="translate(388.3579,71.9355)"><path
             d="m 0,0 c -0.397,-1.086 -0.95,-1.863 -1.657,-2.332 -0.71,-0.465 -1.695,-0.699 -2.957,-0.699 -0.672,0 -1.425,0.042 -2.255,0.131 l 0,3.031 c 0.297,0 0.702,-0.022 1.22,-0.065 C -5.132,0.023 -4.819,0 -4.715,0 c 0.448,0.053 0.798,0.24 1.048,0.561 0.251,0.317 0.377,0.693 0.377,1.126 0,0.292 -0.054,0.57 -0.155,0.829 l -4.718,12.568 3.939,0 3.031,-9.174 2.981,9.174 3.81,0 L 0,0 z"
             style="fill:#ffffff;fill-opacity:1;fill-rule:evenodd;stroke:none"
             id="path228" /></g><g
           id="g230"
           transform="translate(405.0112,81.7842)"><path
             d="M 0,0 C -0.173,0.977 -0.485,1.692 -0.934,2.146 -1.382,2.6 -2.049,2.826 -2.93,2.826 -3.965,2.826 -4.733,2.522 -5.235,1.914 -5.737,1.306 -5.988,0.67 -5.988,0 L 0,0 z m -5.988,-2.332 c 0,-1.15 0.286,-2.007 0.854,-2.572 0.571,-0.566 1.383,-0.849 2.439,-0.849 0.707,0 1.337,0.179 1.889,0.539 0.556,0.36 0.892,0.769 1.012,1.225 l 3.239,0 C 2.946,-5.553 2.167,-6.7 1.113,-7.432 0.059,-8.16 -1.254,-8.525 -2.826,-8.525 c -2.089,0 -3.754,0.651 -4.989,1.956 -1.236,1.304 -1.852,3.002 -1.852,5.093 0,2.039 0.635,3.727 1.905,5.067 1.27,1.338 2.914,2.008 4.936,2.008 2.124,0 3.742,-0.766 4.847,-2.299 C 3.128,1.767 3.68,-0.109 3.68,-2.332 l -9.668,0 z"
             style="fill:#ffffff;fill-opacity:1;fill-rule:evenodd;stroke:none"
             id="path232" /></g><g
           id="g234"
           transform="translate(411.6509,87.0195)"><path
             d="m 0,0 3.498,0 0,-2.486 c 0.363,0.828 0.95,1.511 1.764,2.046 0.811,0.537 1.665,0.803 2.564,0.803 0.278,0 0.545,-0.043 0.803,-0.13 l 0,-3.42 C 8.25,-3.101 7.811,-3.058 7.309,-3.058 6.046,-3.058 5.128,-3.455 4.547,-4.25 3.97,-5.046 3.68,-6.081 3.68,-7.359 l 0,-6.038 -3.68,0 L 0,0 z"
             style="fill:#ffffff;fill-opacity:1;fill-rule:evenodd;stroke:none"
             id="path236" /></g><path
           d="m 426.284,89.067 -3.68,0 0,3.033 3.68,0 0,-3.033 z m -3.68,-2.254 3.68,0 0,-13.191 -3.68,0 0,13.191 z"
           style="fill:#ffffff;fill-opacity:1;fill-rule:evenodd;stroke:none"
           id="path238" /><g
           id="g240"
           transform="translate(429.8047,82.9004)"><path
             d="m 0,0 c 0,1.571 0.613,2.712 1.84,3.42 1.224,0.709 2.711,1.062 4.457,1.062 1.66,0 3.055,-0.272 4.187,-0.816 1.131,-0.545 1.698,-1.543 1.698,-2.992 l 0,-6.972 c 0,-0.656 0.039,-1.252 0.117,-1.791 0.076,-0.533 0.193,-0.931 0.349,-1.189 l -3.734,0 C 8.83,-8.985 8.766,-8.75 8.723,-8.579 8.678,-8.406 8.656,-8.206 8.656,-7.981 8.119,-8.537 7.453,-8.95 6.646,-9.226 5.844,-9.503 5.01,-9.642 4.146,-9.642 c -1.363,0 -2.466,0.336 -3.304,1.012 -0.838,0.672 -1.256,1.676 -1.256,3.007 0,1.363 0.41,2.335 1.23,2.914 0.821,0.579 1.832,0.95 3.034,1.115 1.201,0.163 2.31,0.323 3.33,0.478 C 8.061,-0.889 8.5,-0.451 8.5,0.205 8.5,0.933 8.299,1.416 7.893,1.658 7.484,1.899 6.895,2.021 6.115,2.021 5.389,2.021 4.82,1.856 4.404,1.528 3.992,1.2 3.748,0.69 3.68,0 L 0,0 z M 8.5,-2.723 C 8.223,-2.965 7.684,-3.146 6.881,-3.267 6.078,-3.387 5.459,-3.491 5.029,-3.579 4.598,-3.664 4.193,-3.846 3.822,-4.123 3.453,-4.398 3.266,-4.847 3.266,-5.468 c 0,-0.64 0.203,-1.084 0.607,-1.335 0.406,-0.25 0.957,-0.379 1.647,-0.379 1.228,0 2.031,0.331 2.41,0.988 0.381,0.657 0.57,1.356 0.57,2.097 l 0,1.374 z"
             style="fill:#ffffff;fill-opacity:1;fill-rule:evenodd;stroke:none"
             id="path242" /></g><g
           id="g244"
           transform="translate(459.9609,84.6104)"><path
             d="m 0,0 c -1.133,0 -1.959,-0.405 -2.482,-1.217 -0.524,-0.813 -0.786,-1.833 -0.786,-3.057 0,-1.177 0.276,-2.189 0.825,-3.035 0.547,-0.845 1.365,-1.27 2.443,-1.27 1.131,0 1.947,0.405 2.443,1.22 0.496,0.811 0.745,1.846 0.745,3.108 0,1.228 -0.254,2.242 -0.758,3.045 C 1.924,-0.401 1.115,0 0,0 m 3.188,-9.278 c -0.432,-0.707 -1.006,-1.23 -1.723,-1.567 -0.719,-0.339 -1.516,-0.507 -2.401,-0.507 -1.898,0 -3.377,0.7 -4.429,2.098 -1.053,1.4 -1.582,3.095 -1.582,5.08 0,1.938 0.517,3.577 1.556,4.925 1.036,1.348 2.498,2.021 4.379,2.021 0.813,0 1.576,-0.148 2.295,-0.445 C 2,2.029 2.566,1.59 2.98,1.011 l 0.026,0 0,6.479 3.68,0 0,-18.478 -3.498,0 0,1.71 z"
             style="fill:#ffffff;fill-opacity:1;fill-rule:evenodd;stroke:none"
             id="path246" /></g><g
           id="g248"
           transform="translate(479.2227,81.7842)"><path
             d="M 0,0 C -0.17,0.977 -0.482,1.692 -0.93,2.146 -1.379,2.6 -2.045,2.826 -2.926,2.826 -3.961,2.826 -4.732,2.522 -5.232,1.914 -5.734,1.306 -5.984,0.67 -5.984,0 L 0,0 z m -5.984,-2.332 c 0,-1.15 0.285,-2.007 0.853,-2.572 0.572,-0.566 1.383,-0.849 2.438,-0.849 0.709,0 1.338,0.179 1.89,0.539 0.555,0.36 0.893,0.769 1.012,1.225 l 3.24,0 C 2.947,-5.553 2.17,-6.7 1.117,-7.432 0.063,-8.16 -1.25,-8.525 -2.822,-8.525 c -2.092,0 -3.754,0.651 -4.991,1.956 -1.234,1.304 -1.851,3.002 -1.851,5.093 0,2.039 0.635,3.727 1.904,5.067 1.268,1.338 2.914,2.008 4.938,2.008 2.123,0 3.74,-0.766 4.845,-2.299 C 3.129,1.767 3.68,-0.109 3.68,-2.332 l -9.664,0 z"
             style="fill:#ffffff;fill-opacity:1;fill-rule:evenodd;stroke:none"
             id="path250" /></g><g
           id="g252"
           transform="translate(502.8223,73.6221)"><path
             d="m 0,0 -4.586,0 -6.012,18.479 4.198,0 4.119,-13.116 4.224,13.116 4.202,0 L 0,0 z"
             style="fill:#ffffff;fill-opacity:1;fill-rule:evenodd;stroke:none"
             id="path254" /></g><path
           d="m 514.74,89.067 -3.68,0 0,3.033 3.68,0 0,-3.033 z m -3.679,-2.254 3.68,0 0,-13.191 -3.68,0 0,13.191 z"
           style="fill:#ffffff;fill-opacity:1;fill-rule:evenodd;stroke:none"
           id="path256" /><path
           d="m 518.52,92.101 3.68,0 0,-18.479 -3.68,0 0,18.479 z"
           style="fill:#ffffff;fill-opacity:1;fill-rule:evenodd;stroke:none"
           id="path258" /><g
           id="g260"
           transform="translate(525.7207,82.9004)"><path
             d="m 0,0 c 0,1.571 0.611,2.712 1.84,3.42 1.226,0.709 2.713,1.062 4.459,1.062 1.656,0 3.053,-0.272 4.183,-0.816 1.131,-0.545 1.698,-1.543 1.698,-2.992 l 0,-6.972 c 0,-0.656 0.039,-1.252 0.117,-1.791 0.076,-0.533 0.195,-0.931 0.349,-1.189 l -3.734,0 C 8.828,-8.985 8.764,-8.75 8.721,-8.579 8.678,-8.406 8.656,-8.206 8.656,-7.981 8.121,-8.537 7.451,-8.95 6.648,-9.226 5.844,-9.503 5.01,-9.642 4.146,-9.642 c -1.365,0 -2.466,0.336 -3.304,1.012 -0.838,0.672 -1.258,1.676 -1.258,3.007 0,1.363 0.41,2.335 1.232,2.914 0.821,0.579 1.832,0.95 3.032,1.115 1.201,0.163 2.31,0.323 3.33,0.478 C 8.059,-0.889 8.5,-0.451 8.5,0.205 8.5,0.933 8.297,1.416 7.891,1.658 7.486,1.899 6.893,2.021 6.117,2.021 5.391,2.021 4.82,1.856 4.406,1.528 3.99,1.2 3.75,0.69 3.68,0 L 0,0 z M 8.5,-2.723 C 8.225,-2.965 7.684,-3.146 6.879,-3.267 6.076,-3.387 5.461,-3.491 5.027,-3.579 4.596,-3.664 4.193,-3.846 3.822,-4.123 3.451,-4.398 3.264,-4.847 3.264,-5.468 c 0,-0.64 0.203,-1.084 0.611,-1.335 0.406,-0.25 0.953,-0.379 1.645,-0.379 1.226,0 2.029,0.331 2.412,0.988 0.379,0.657 0.568,1.356 0.568,2.097 l 0,1.374 z"
             style="fill:#ffffff;fill-opacity:1;fill-rule:evenodd;stroke:none"
             id="path262" /></g><g
           id="g264"
           transform="translate(541.5352,87.0195)"><path
             d="m 0,0 3.498,0 0,-1.865 c 0.502,0.742 1.115,1.3 1.84,1.672 0.726,0.371 1.504,0.556 2.334,0.556 1.848,0 3.127,-0.467 3.834,-1.399 0.709,-0.933 1.064,-2.307 1.064,-4.121 l 0,-8.24 -3.679,0 0,7.567 c 0,2.193 -0.787,3.291 -2.36,3.291 -1.019,0 -1.75,-0.299 -2.191,-0.895 C 3.9,-4.029 3.68,-5.008 3.68,-6.374 l 0,-7.023 -3.68,0 L 0,0 z"
             style="fill:#ffffff;fill-opacity:1;fill-rule:evenodd;stroke:none"
             id="path266" /></g><g
           id="g268"
           transform="translate(564.2051,76.0313)"><path
             d="m 0,0 c 1.158,0 1.99,0.405 2.5,1.22 0.51,0.811 0.766,1.83 0.766,3.057 0,1.244 -0.25,2.272 -0.752,3.085 C 2.012,8.174 1.174,8.579 0,8.579 -1.143,8.579 -1.967,8.164 -2.477,7.336 -2.986,6.506 -3.238,5.486 -3.238,4.277 -3.238,3.05 -2.988,2.031 -2.486,1.22 -1.988,0.405 -1.158,0 0,0 m 0,11.352 c 2.125,0 3.814,-0.644 5.068,-1.931 C 6.318,8.134 6.945,6.418 6.945,4.277 6.945,2.15 6.311,0.445 5.041,-0.841 3.771,-2.129 2.09,-2.772 0,-2.772 c -2.107,0 -3.789,0.643 -5.041,1.931 -1.25,1.286 -1.879,2.991 -1.879,5.118 0,2.141 0.629,3.857 1.879,5.144 1.252,1.287 2.934,1.931 5.041,1.931"
             style="fill:#ffffff;fill-opacity:1;fill-rule:evenodd;stroke:none"
             id="path270" /></g><g
           id="g272"
           transform="translate(581.7344,73.6221)"><path
             d="m 0,0 -4.096,0 -4.588,13.397 3.862,0 2.812,-9.146 2.864,9.146 3.679,0 L 0,0 z"
             style="fill:#ffffff;fill-opacity:1;fill-rule:evenodd;stroke:none"
             id="path274" /></g><g
           id="g276"
           transform="translate(588.4082,82.9004)"><path
             d="m 0,0 c 0,1.571 0.613,2.712 1.838,3.42 1.228,0.709 2.715,1.062 4.459,1.062 1.66,0 3.053,-0.272 4.185,-0.816 1.131,-0.545 1.698,-1.543 1.698,-2.992 l 0,-6.972 c 0,-0.656 0.039,-1.252 0.117,-1.791 0.076,-0.533 0.193,-0.931 0.349,-1.189 l -3.73,0 C 8.828,-8.985 8.764,-8.75 8.721,-8.579 8.678,-8.406 8.656,-8.206 8.656,-7.981 8.119,-8.537 7.451,-8.95 6.646,-9.226 5.844,-9.503 5.012,-9.642 4.146,-9.642 c -1.365,0 -2.464,0.336 -3.306,1.012 -0.838,0.672 -1.256,1.676 -1.256,3.007 0,1.363 0.41,2.335 1.232,2.914 0.819,0.579 1.83,0.95 3.032,1.115 1.201,0.163 2.31,0.323 3.33,0.478 0.881,0.227 1.32,0.665 1.32,1.321 0,0.728 -0.201,1.211 -0.607,1.453 C 7.484,1.899 6.893,2.021 6.115,2.021 5.391,2.021 4.818,1.856 4.406,1.528 3.992,1.2 3.75,0.69 3.68,0 L 0,0 z M 8.498,-2.723 C 8.225,-2.965 7.686,-3.146 6.879,-3.267 6.076,-3.387 5.459,-3.491 5.027,-3.579 4.596,-3.664 4.195,-3.846 3.82,-4.123 3.451,-4.398 3.266,-4.847 3.266,-5.468 c 0,-0.64 0.203,-1.084 0.609,-1.335 0.404,-0.25 0.955,-0.379 1.643,-0.379 1.228,0 2.031,0.331 2.412,0.988 0.379,0.657 0.568,1.356 0.568,2.097 l 0,1.374 z"
             style="fill:#ffffff;fill-opacity:1;fill-rule:evenodd;stroke:none"
             id="path278" /></g><path
           d="m 615.971,89.067 -3.68,0 0,3.033 3.68,0 0,-3.033 z m -3.68,-2.254 3.68,0 0,-13.191 -3.68,0 0,13.191 z"
           style="fill:#ffffff;fill-opacity:1;fill-rule:evenodd;stroke:none"
           id="path280" /><path
           d="m 627.715,92.101 3.682,0 0,-18.479 -3.682,0 0,18.479 z"
           style="fill:#ffffff;fill-opacity:1;fill-rule:evenodd;stroke:none"
           id="path282" /><g
           id="g284"
           transform="translate(634.916,82.9004)"><path
             d="m 0,0 c 0,1.571 0.611,2.712 1.84,3.42 1.226,0.709 2.713,1.062 4.459,1.062 1.656,0 3.053,-0.272 4.183,-0.816 1.131,-0.545 1.698,-1.543 1.698,-2.992 l 0,-6.972 c 0,-0.656 0.039,-1.252 0.117,-1.791 0.076,-0.533 0.195,-0.931 0.349,-1.189 l -3.73,0 C 8.828,-8.985 8.764,-8.75 8.721,-8.579 8.676,-8.406 8.654,-8.206 8.654,-7.981 8.121,-8.537 7.451,-8.95 6.648,-9.226 5.844,-9.503 5.01,-9.642 4.145,-9.642 c -1.364,0 -2.465,0.336 -3.303,1.012 -0.838,0.672 -1.258,1.676 -1.258,3.007 0,1.363 0.41,2.335 1.23,2.914 0.823,0.579 1.834,0.95 3.034,1.115 1.201,0.163 2.312,0.323 3.33,0.478 C 8.059,-0.889 8.5,-0.451 8.5,0.205 8.5,0.933 8.297,1.416 7.891,1.658 7.486,1.899 6.893,2.021 6.117,2.021 5.391,2.021 4.82,1.856 4.406,1.528 3.99,1.2 3.75,0.69 3.68,0 L 0,0 z M 8.5,-2.723 C 8.225,-2.965 7.684,-3.146 6.879,-3.267 6.076,-3.387 5.461,-3.491 5.027,-3.579 4.596,-3.664 4.193,-3.846 3.822,-4.123 3.451,-4.398 3.264,-4.847 3.264,-5.468 c 0,-0.64 0.203,-1.084 0.609,-1.335 0.408,-0.25 0.955,-0.379 1.647,-0.379 1.226,0 2.029,0.331 2.408,0.988 0.383,0.657 0.572,1.356 0.572,2.097 l 0,1.374 z"
             style="fill:#ffffff;fill-opacity:1;fill-rule:evenodd;stroke:none"
             id="path286" /></g><g
           id="g288"
           transform="translate(672.457,75.7188)"><path
             d="m 0,0 c -0.674,-0.854 -1.449,-1.486 -2.334,-1.896 -0.879,-0.409 -1.795,-0.618 -2.744,-0.618 -2.783,0 -4.996,0.916 -6.637,2.742 -1.642,1.827 -2.461,4.111 -2.461,6.849 0,2.825 0.817,5.156 2.447,6.991 1.633,1.836 3.85,2.754 6.651,2.754 1.984,0 3.73,-0.579 5.234,-1.736 1.502,-1.156 2.36,-2.737 2.565,-4.743 l -3.889,0 c -0.223,1.002 -0.682,1.762 -1.371,2.28 -0.693,0.52 -1.539,0.778 -2.539,0.778 -1.711,0 -2.979,-0.603 -3.799,-1.806 -0.82,-1.205 -1.228,-2.711 -1.228,-4.518 0,-1.719 0.408,-3.178 1.228,-4.374 0.82,-1.197 2.088,-1.796 3.799,-1.796 2.693,0 4.162,1.332 4.404,3.992 l -4.096,0 0,3.034 7.776,0 0,-10.03 -2.59,0 L 0,0 z"
             style="fill:#ffffff;fill-opacity:1;fill-rule:evenodd;stroke:none"
             id="path290" /></g><g
           id="g292"
           transform="translate(688.1816,81.7842)"><path
             d="M 0,0 C -0.172,0.977 -0.484,1.692 -0.932,2.146 -1.383,2.6 -2.047,2.826 -2.928,2.826 -3.965,2.826 -4.734,2.522 -5.236,1.914 -5.734,1.306 -5.986,0.67 -5.986,0 L 0,0 z m -5.986,-2.332 c 0,-1.15 0.285,-2.007 0.853,-2.572 0.572,-0.566 1.383,-0.849 2.438,-0.849 0.709,0 1.34,0.179 1.892,0.539 0.551,0.36 0.891,0.769 1.01,1.225 l 3.24,0 C 2.945,-5.553 2.17,-6.7 1.115,-7.432 0.061,-8.16 -1.252,-8.525 -2.824,-8.525 c -2.092,0 -3.754,0.651 -4.99,1.956 -1.235,1.304 -1.852,3.002 -1.852,5.093 0,2.039 0.635,3.727 1.906,5.067 1.27,1.338 2.914,2.008 4.936,2.008 2.125,0 3.742,-0.766 4.845,-2.299 1.106,-1.533 1.661,-3.409 1.661,-5.632 l -9.668,0 z"
             style="fill:#ffffff;fill-opacity:1;fill-rule:evenodd;stroke:none"
             id="path294" /></g><path
           d="m 694.928,92.101 3.68,0 0,-18.479 -3.68,0 0,18.479 z"
           style="fill:#ffffff;fill-opacity:1;fill-rule:evenodd;stroke:none"
           id="path296" /><g
           id="g298"
           transform="translate(706.9453,87.0195)"><path
             d="m 0,0 2.695,0 0,-2.461 -2.695,0 0,-6.636 c 0,-0.621 0.104,-1.035 0.313,-1.243 0.205,-0.208 0.621,-0.309 1.244,-0.309 0.412,0 0.795,0.043 1.138,0.128 l 0,-2.876 c -0.293,-0.065 -0.707,-0.105 -1.244,-0.124 -0.533,-0.021 -0.838,-0.032 -0.906,-0.032 -1.328,0 -2.367,0.219 -3.109,0.659 -0.745,0.441 -1.116,1.284 -1.116,2.528 l 0,7.905 -2.228,0 0,2.461 2.228,0 0,4.018 3.68,0 L 0,0 z"
             style="fill:#ffffff;fill-opacity:1;fill-rule:evenodd;stroke:none"
             id="path300" /></g><g
           id="g302"
           transform="translate(712.1699,87.0195)"><path
             d="m 0,0 3.498,0 0,-2.486 c 0.363,0.828 0.951,1.511 1.766,2.046 0.81,0.537 1.664,0.803 2.562,0.803 0.279,0 0.545,-0.043 0.805,-0.13 l 0,-3.42 C 8.252,-3.101 7.809,-3.058 7.309,-3.058 6.047,-3.058 5.127,-3.455 4.547,-4.25 3.971,-5.046 3.68,-6.081 3.68,-7.359 l 0,-6.038 -3.68,0 L 0,0 z"
             style="fill:#ffffff;fill-opacity:1;fill-rule:evenodd;stroke:none"
             id="path304" /></g><g
           id="g306"
           transform="translate(729.916,88.6797)"><path
             d="m 0,0 -2.568,0 2.488,3.68 4.068,0 L 0,0 z m 5.676,-15.058 -3.498,0 0,1.866 c -0.502,-0.743 -1.115,-1.3 -1.842,-1.671 -0.727,-0.371 -1.506,-0.558 -2.332,-0.558 -1.85,0 -3.127,0.467 -3.838,1.399 -0.707,0.933 -1.062,2.307 -1.062,4.12 l 0,8.242 3.679,0 0,-7.568 c 0,-2.193 0.789,-3.29 2.36,-3.29 1.019,0 1.752,0.299 2.191,0.894 0.439,0.596 0.662,1.577 0.662,2.941 l 0,7.023 3.68,0 0,-13.398 z"
             style="fill:#ffffff;fill-opacity:1;fill-rule:evenodd;stroke:none"
             id="path308" /></g><g
           id="g310"
           transform="translate(283.5571,125.1914)"><path
             d="m 0,0 13.841,0 0,-3.421 -9.771,0 0,-3.938 8.968,0 0,-3.162 -8.968,0 0,-4.536 9.98,0 0,-3.421 -14.05,0 L 0,0 z"
             style="fill:#ffffff;fill-opacity:1;fill-rule:evenodd;stroke:none"
             id="path312" /></g><g
           id="g314"
           transform="translate(303.6025,111.0674)"><path
             d="m 0,0 c 0,-0.76 0.27,-1.326 0.803,-1.696 0.537,-0.371 1.212,-0.559 2.023,-0.559 0.638,0 1.201,0.134 1.684,0.402 0.483,0.268 0.726,0.705 0.726,1.309 0,0.778 -1.028,1.391 -3.085,1.84 -2.055,0.449 -3.458,0.925 -4.211,1.427 -0.753,0.5 -1.126,1.295 -1.126,2.383 0,1.555 0.555,2.661 1.67,3.318 C -0.4,9.08 0.985,9.408 2.645,9.408 4.302,9.408 5.668,9.08 6.738,8.424 7.811,7.767 8.414,6.67 8.552,5.132 l -3.498,0 C 5.054,5.788 4.822,6.255 4.355,6.531 3.888,6.808 3.282,6.946 2.541,6.946 1.988,6.946 1.508,6.859 1.102,6.688 0.697,6.514 0.494,6.186 0.494,5.703 0.494,5.132 0.745,4.761 1.244,4.588 1.746,4.415 2.778,4.147 4.342,3.784 5.905,3.421 7.058,2.978 7.803,2.45 8.544,1.923 8.916,1.089 8.916,-0.052 8.916,-1.692 8.333,-2.88 7.167,-3.615 6.001,-4.35 4.544,-4.716 2.799,-4.716 c -1.779,0 -3.274,0.375 -4.483,1.127 C -2.893,-2.838 -3.498,-1.641 -3.498,0 L 0,0 z"
             style="fill:#ffffff;fill-opacity:1;fill-rule:evenodd;stroke:none"
             id="path316" /></g><g
           id="g318"
           transform="translate(324.5737,115.3965)"><path
             d="m 0,0 c -0.123,0.76 -0.411,1.334 -0.87,1.724 -0.459,0.387 -1.075,0.583 -1.852,0.583 -1.072,0 -1.862,-0.442 -2.372,-1.323 -0.51,-0.88 -0.765,-1.892 -0.765,-3.031 0,-1.141 0.242,-2.13 0.725,-2.969 0.486,-0.838 1.262,-1.256 2.332,-1.256 0.83,0 1.497,0.241 1.996,0.725 0.502,0.484 0.814,1.149 0.934,1.996 l 3.552,0 C 3.453,-5.296 2.768,-6.647 1.617,-7.606 0.47,-8.566 -0.995,-9.045 -2.775,-9.045 c -2.02,0 -3.653,0.639 -4.896,1.917 -1.247,1.278 -1.869,2.929 -1.869,4.95 0,2.125 0.612,3.866 1.829,5.222 1.216,1.357 2.889,2.035 5.014,2.035 1.729,0 3.21,-0.44 4.445,-1.322 C 2.983,2.876 3.603,1.623 3.603,0 L 0,0 z"
             style="fill:#ffffff;fill-opacity:1;fill-rule:evenodd;stroke:none"
             id="path320" /></g><g
           id="g322"
           transform="translate(337.6147,109.124)"><path
             d="M 0,0 C 1.158,0 1.991,0.407 2.5,1.218 3.01,2.03 3.264,3.05 3.264,4.276 3.264,5.521 3.015,6.548 2.514,7.36 2.012,8.172 1.174,8.579 0,8.579 -1.14,8.579 -1.967,8.164 -2.477,7.334 -2.986,6.506 -3.239,5.486 -3.239,4.276 -3.239,3.05 -2.989,2.03 -2.49,1.218 -1.988,0.407 -1.158,0 0,0 m 0,11.352 c 2.124,0 3.813,-0.644 5.067,-1.931 C 6.319,8.133 6.946,6.419 6.946,4.276 6.946,2.152 6.311,0.445 5.041,-0.842 3.771,-2.13 2.089,-2.772 0,-2.772 c -2.108,0 -3.789,0.642 -5.041,1.93 -1.254,1.287 -1.878,2.994 -1.878,5.118 0,2.143 0.624,3.857 1.878,5.145 1.252,1.287 2.933,1.931 5.041,1.931"
             style="fill:#ffffff;fill-opacity:1;fill-rule:evenodd;stroke:none"
             id="path324" /></g><path
           d="m 347.835,125.191 3.68,0 0,-18.478 -3.68,0 0,18.478 z"
           style="fill:#ffffff;fill-opacity:1;fill-rule:evenodd;stroke:none"
           id="path326" /><g
           id="g328"
           transform="translate(355.0342,115.9922)"><path
             d="m 0,0 c 0,1.572 0.614,2.713 1.838,3.421 1.228,0.709 2.714,1.062 4.459,1.062 1.658,0 3.053,-0.272 4.185,-0.816 1.134,-0.543 1.7,-1.541 1.7,-2.993 l 0,-6.973 c 0,-0.656 0.037,-1.251 0.114,-1.788 0.078,-0.534 0.195,-0.933 0.35,-1.191 l -3.73,0 C 8.827,-8.984 8.763,-8.751 8.721,-8.579 8.678,-8.405 8.657,-8.207 8.657,-7.982 8.12,-8.535 7.45,-8.95 6.647,-9.226 5.844,-9.504 5.009,-9.641 4.147,-9.641 c -1.366,0 -2.468,0.337 -3.306,1.01 -0.838,0.675 -1.257,1.676 -1.257,3.008 0,1.364 0.411,2.336 1.233,2.915 0.819,0.579 1.83,0.95 3.031,1.114 1.201,0.164 2.311,0.324 3.33,0.48 0.881,0.224 1.321,0.665 1.321,1.321 0,0.726 -0.203,1.209 -0.608,1.451 C 7.485,1.9 6.893,2.021 6.116,2.021 5.39,2.021 4.819,1.857 4.406,1.529 3.989,1.201 3.75,0.691 3.68,0 L 0,0 z M 8.499,-2.722 C 8.224,-2.963 7.683,-3.145 6.879,-3.266 6.076,-3.388 5.459,-3.49 5.027,-3.577 4.595,-3.662 4.192,-3.844 3.821,-4.121 3.451,-4.397 3.264,-4.847 3.264,-5.469 c 0,-0.638 0.205,-1.083 0.611,-1.334 0.405,-0.251 0.952,-0.377 1.646,-0.377 1.225,0 2.028,0.329 2.41,0.986 0.379,0.656 0.568,1.356 0.568,2.099 l 0,1.373 z"
             style="fill:#ffffff;fill-opacity:1;fill-rule:evenodd;stroke:none"
             id="path330" /></g><g
           id="g332"
           transform="translate(383.272,116.5098)"><path
             d="m 0,0 3.162,0 c 1.105,0 1.977,0.189 2.617,0.567 0.638,0.379 0.958,1.111 0.958,2.194 0,1.066 -0.32,1.793 -0.958,2.18 -0.64,0.387 -1.512,0.58 -2.617,0.58 L 0,5.521 0,0 z m -4.069,8.682 8.343,0 c 2.143,0 3.747,-0.573 4.809,-1.718 1.062,-1.148 1.593,-2.549 1.593,-4.203 0,-1.672 -0.523,-3.076 -1.566,-4.215 C 8.064,-2.592 6.452,-3.16 4.274,-3.16 l -4.274,0 0,-6.636 -4.069,0 0,18.478 z"
             style="fill:#ffffff;fill-opacity:1;fill-rule:evenodd;stroke:none"
             id="path334" /></g><g
           id="g336"
           transform="translate(403.3569,109.124)"><path
             d="M 0,0 C 1.158,0 1.991,0.407 2.5,1.218 3.01,2.03 3.267,3.05 3.267,4.276 3.267,5.521 3.016,6.548 2.514,7.36 2.012,8.172 1.174,8.579 0,8.579 -1.139,8.579 -1.964,8.164 -2.476,7.334 -2.983,6.506 -3.239,5.486 -3.239,4.276 -3.239,3.05 -2.988,2.03 -2.487,1.218 -1.988,0.407 -1.158,0 0,0 m 0,11.352 c 2.124,0 3.813,-0.644 5.067,-1.931 C 6.319,8.133 6.946,6.419 6.946,4.276 6.946,2.152 6.311,0.445 5.041,-0.842 3.771,-2.13 2.092,-2.772 0,-2.772 c -2.108,0 -3.789,0.642 -5.041,1.93 -1.251,1.287 -1.878,2.994 -1.878,5.118 0,2.143 0.627,3.857 1.878,5.145 1.252,1.287 2.933,1.931 5.041,1.931"
             style="fill:#ffffff;fill-opacity:1;fill-rule:evenodd;stroke:none"
             id="path338" /></g><path
           d="m 413.577,125.191 3.68,0 0,-18.478 -3.68,0 0,18.478 z"
           style="fill:#ffffff;fill-opacity:1;fill-rule:evenodd;stroke:none"
           id="path340" /><path
           d="m 424.715,122.16 -3.679,0 0,3.031 3.679,0 0,-3.031 z m -3.679,-2.255 3.679,0 0,-13.191 -3.679,0 0,13.191 z"
           style="fill:#ffffff;fill-opacity:1;fill-rule:evenodd;stroke:none"
           id="path342" /><g
           id="g344"
           transform="translate(433.0566,120.1123)"><path
             d="m 0,0 2.695,0 0,-2.462 -2.695,0 0,-6.635 c 0,-0.622 0.102,-1.036 0.311,-1.243 0.207,-0.207 0.621,-0.311 1.242,-0.311 0.416,0 0.795,0.043 1.142,0.13 l 0,-2.877 c -0.293,-0.063 -0.709,-0.104 -1.244,-0.124 -0.535,-0.022 -0.838,-0.032 -0.906,-0.032 -1.332,0 -2.367,0.22 -3.111,0.661 -0.743,0.441 -1.116,1.283 -1.116,2.528 l 0,7.903 -2.228,0 0,2.462 2.228,0 0,4.018 L 0,4.018 0,0 z"
             style="fill:#ffffff;fill-opacity:1;fill-rule:evenodd;stroke:none"
             id="path346" /></g><g
           id="g348"
           transform="translate(439.7305,125.4521)"><path
             d="m 0,0 4.07,0 2.487,-3.682 -2.565,0 L 0,0 z m 7.568,-10.574 c -0.173,0.975 -0.484,1.69 -0.931,2.144 -0.451,0.453 -1.116,0.681 -1.996,0.681 -1.039,0 -1.807,-0.305 -2.309,-0.911 -0.498,-0.609 -0.75,-1.246 -0.75,-1.914 l 5.986,0 z m -5.986,-2.333 c 0,-1.149 0.283,-2.006 0.854,-2.572 0.572,-0.567 1.382,-0.849 2.437,-0.849 0.707,0 1.34,0.18 1.891,0.54 0.552,0.359 0.892,0.766 1.011,1.223 l 3.241,0 c -0.502,-1.565 -1.28,-2.712 -2.332,-3.442 -1.055,-0.729 -2.368,-1.094 -3.942,-1.094 -2.09,0 -3.752,0.653 -4.988,1.957 -1.234,1.304 -1.854,3.002 -1.854,5.092 0,2.038 0.635,3.728 1.905,5.068 1.271,1.338 2.918,2.007 4.937,2.007 2.127,0 3.74,-0.765 4.848,-2.298 1.105,-1.534 1.658,-3.411 1.658,-5.632 l -9.666,0 z"
             style="fill:#ffffff;fill-opacity:1;fill-rule:evenodd;stroke:none"
             id="path350" /></g><g
           id="g352"
           transform="translate(463.0605,115.3965)"><path
             d="m 0,0 c -0.119,0.76 -0.41,1.334 -0.867,1.724 -0.459,0.387 -1.076,0.583 -1.854,0.583 -1.07,0 -1.861,-0.442 -2.371,-1.323 -0.51,-0.88 -0.765,-1.892 -0.765,-3.031 0,-1.141 0.244,-2.13 0.726,-2.969 0.485,-0.838 1.262,-1.256 2.332,-1.256 0.83,0 1.496,0.241 1.996,0.725 0.502,0.484 0.815,1.149 0.934,1.996 l 3.553,0 C 3.455,-5.296 2.77,-6.647 1.619,-7.606 c -1.146,-0.96 -2.611,-1.439 -4.39,-1.439 -2.022,0 -3.655,0.639 -4.897,1.917 -1.248,1.278 -1.869,2.929 -1.869,4.95 0,2.125 0.609,3.866 1.828,5.222 1.217,1.357 2.891,2.035 5.014,2.035 1.73,0 3.211,-0.44 4.445,-1.322 C 2.986,2.876 3.604,1.623 3.604,0 L 0,0 z"
             style="fill:#ffffff;fill-opacity:1;fill-rule:evenodd;stroke:none"
             id="path354" /></g><g
           id="g356"
           transform="translate(469.5977,120.1123)"><path
             d="m 0,0 3.5,0 0,-1.865 c 0.5,0.743 1.115,1.3 1.84,1.672 0.726,0.371 1.502,0.556 2.332,0.556 1.849,0 3.129,-0.466 3.836,-1.399 0.709,-0.933 1.06,-2.306 1.06,-4.12 l 0,-8.242 -3.679,0 0,7.568 c 0,2.193 -0.784,3.291 -2.358,3.291 -1.019,0 -1.748,-0.299 -2.189,-0.894 C 3.902,-4.029 3.68,-5.01 3.68,-6.375 l 0,-7.023 -3.68,0 L 0,0 z"
             style="fill:#ffffff;fill-opacity:1;fill-rule:evenodd;stroke:none"
             id="path358" /></g><path
           d="m 489.547,122.16 -3.68,0 0,3.031 3.68,0 0,-3.031 z m -3.68,-2.255 3.68,0 0,-13.191 -3.68,0 0,13.191 z"
           style="fill:#ffffff;fill-opacity:1;fill-rule:evenodd;stroke:none"
           id="path360" /><g
           id="g362"
           transform="translate(502.3457,115.3965)"><path
             d="m 0,0 c -0.121,0.76 -0.41,1.334 -0.869,1.724 -0.457,0.387 -1.074,0.583 -1.854,0.583 -1.07,0 -1.861,-0.442 -2.369,-1.323 -0.512,-0.88 -0.765,-1.892 -0.765,-3.031 0,-1.141 0.242,-2.13 0.726,-2.969 0.483,-0.838 1.262,-1.256 2.332,-1.256 0.83,0 1.494,0.241 1.996,0.725 0.502,0.484 0.811,1.149 0.932,1.996 l 3.551,0 C 3.455,-5.296 2.77,-6.647 1.619,-7.606 c -1.15,-0.96 -2.611,-1.439 -4.392,-1.439 -2.022,0 -3.655,0.639 -4.899,1.917 -1.244,1.278 -1.865,2.929 -1.865,4.95 0,2.125 0.607,3.866 1.824,5.222 1.221,1.357 2.893,2.035 5.018,2.035 1.726,0 3.207,-0.44 4.445,-1.322 C 2.982,2.876 3.602,1.623 3.602,0 L 0,0 z"
             style="fill:#ffffff;fill-opacity:1;fill-rule:evenodd;stroke:none"
             id="path364" /></g><g
           id="g366"
           transform="translate(508.7266,115.9922)"><path
             d="m 0,0 c 0,1.572 0.613,2.713 1.84,3.421 1.224,0.709 2.711,1.062 4.457,1.062 1.66,0 3.055,-0.272 4.187,-0.816 1.131,-0.543 1.698,-1.541 1.698,-2.993 l 0,-6.973 c 0,-0.656 0.039,-1.251 0.117,-1.788 0.076,-0.534 0.191,-0.933 0.349,-1.191 l -3.734,0 C 8.83,-8.984 8.766,-8.751 8.719,-8.579 8.678,-8.405 8.656,-8.207 8.656,-7.982 8.119,-8.535 7.453,-8.95 6.646,-9.226 5.844,-9.504 5.01,-9.641 4.146,-9.641 c -1.363,0 -2.466,0.337 -3.304,1.01 -0.838,0.675 -1.256,1.676 -1.256,3.008 0,1.364 0.41,2.336 1.23,2.915 0.821,0.579 1.832,0.95 3.034,1.114 1.201,0.164 2.31,0.324 3.33,0.48 C 8.061,-0.89 8.5,-0.449 8.5,0.207 8.5,0.933 8.299,1.416 7.893,1.658 7.484,1.9 6.895,2.021 6.115,2.021 5.389,2.021 4.82,1.857 4.404,1.529 3.992,1.201 3.748,0.691 3.68,0 L 0,0 z M 8.5,-2.722 C 8.223,-2.963 7.684,-3.145 6.881,-3.266 6.078,-3.388 5.459,-3.49 5.027,-3.577 4.598,-3.662 4.193,-3.844 3.822,-4.121 3.453,-4.397 3.266,-4.847 3.266,-5.469 c 0,-0.638 0.203,-1.083 0.607,-1.334 0.406,-0.251 0.957,-0.377 1.647,-0.377 1.228,0 2.031,0.329 2.41,0.986 0.381,0.656 0.57,1.356 0.57,2.099 l 0,1.373 z"
             style="fill:#ffffff;fill-opacity:1;fill-rule:evenodd;stroke:none"
             id="path368" /></g><g
           id="g370"
           transform="translate(535.6699,112.8828)"><path
             d="m 0,0 c 0,-1.158 0.383,-2.018 1.152,-2.579 0.768,-0.563 1.75,-0.843 2.94,-0.843 0.935,0 1.767,0.173 2.504,0.517 0.734,0.344 1.099,0.938 1.099,1.783 0,0.86 -0.343,1.434 -1.035,1.718 C 5.969,0.88 4.498,1.319 2.254,1.913 0.008,2.508 -1.484,3.226 -2.219,4.07 -2.953,4.915 -3.32,5.947 -3.32,7.17 c 0,1.774 0.693,3.148 2.076,4.121 1.383,0.973 2.996,1.46 4.846,1.46 2.125,0 3.89,-0.47 5.298,-1.408 1.411,-0.938 2.112,-2.377 2.112,-4.321 l -3.94,0 C 7.072,7.957 6.74,8.618 6.074,9.006 5.41,9.396 4.525,9.589 3.42,9.589 2.676,9.589 2.025,9.421 1.461,9.084 0.9,8.749 0.621,8.22 0.621,7.496 0.621,6.704 1.021,6.174 1.824,5.907 2.631,5.641 4.023,5.252 6.012,4.744 8,4.237 9.432,3.557 10.313,2.704 c 0.88,-0.852 1.32,-1.976 1.32,-3.372 0,-1.757 -0.664,-3.182 -1.992,-4.274 -1.332,-1.094 -3.233,-1.642 -5.703,-1.642 -2.211,0 -4.077,0.563 -5.598,1.685 C -3.182,-3.776 -3.939,-2.144 -3.939,0 L 0,0 z"
             style="fill:#ffffff;fill-opacity:1;fill-rule:evenodd;stroke:none"
             id="path372" /></g><g
           id="g374"
           transform="translate(562.6582,106.7139)"><path
             d="m 0,0 -3.498,0 0,1.865 c -0.5,-0.743 -1.113,-1.299 -1.84,-1.672 -0.725,-0.37 -1.504,-0.555 -2.332,-0.555 -1.85,0 -3.127,0.466 -3.838,1.399 -0.707,0.933 -1.06,2.306 -1.06,4.12 l 0,8.241 3.679,0 0,-7.567 c 0,-2.193 0.787,-3.292 2.36,-3.292 1.017,0 1.746,0.299 2.189,0.895 0.442,0.595 0.66,1.577 0.66,2.941 l 0,7.023 3.68,0 L 0,0 z"
             style="fill:#ffffff;fill-opacity:1;fill-rule:evenodd;stroke:none"
             id="path376" /></g><g
           id="g378"
           transform="translate(576.209,113.375)"><path
             d="m 0,0 c 0,1.208 -0.262,2.231 -0.785,3.071 -0.524,0.838 -1.342,1.257 -2.457,1.257 -1.113,0 -1.93,-0.415 -2.444,-1.245 C -6.199,2.255 -6.455,1.226 -6.455,0 c 0,-1.227 0.26,-2.242 0.783,-3.046 0.524,-0.804 1.34,-1.205 2.455,-1.205 1.135,0 1.951,0.401 2.459,1.205 C -0.254,-2.242 0,-1.227 0,0 m -9.955,6.53 3.5,0 0,-1.503 c 0.449,0.691 1.023,1.21 1.723,1.556 0.699,0.346 1.472,0.518 2.318,0.518 1.988,0 3.5,-0.695 4.537,-2.08 C 3.158,3.633 3.68,1.916 3.68,-0.13 c 0,-1.908 -0.522,-3.542 -1.557,-4.904 -1.037,-1.362 -2.478,-2.042 -4.328,-2.042 -0.811,0 -1.576,0.181 -2.295,0.545 -0.715,0.363 -1.291,0.872 -1.725,1.529 l -0.05,-6.375 -3.68,0 0,17.907 z"
             style="fill:#ffffff;fill-opacity:1;fill-rule:evenodd;stroke:none"
             id="path380" /></g><g
           id="g382"
           transform="translate(591.8926,114.8779)"><path
             d="m 0,0 c -0.17,0.976 -0.482,1.69 -0.932,2.145 -0.449,0.453 -1.115,0.68 -1.994,0.68 -1.039,0 -1.806,-0.304 -2.306,-0.911 C -5.734,1.306 -5.984,0.668 -5.984,0 L 0,0 z m -5.984,-2.333 c 0,-1.148 0.285,-2.006 0.855,-2.571 0.568,-0.568 1.383,-0.85 2.434,-0.85 0.711,0 1.34,0.18 1.894,0.54 0.553,0.36 0.889,0.766 1.01,1.223 l 3.238,0 C 2.947,-5.556 2.17,-6.703 1.115,-7.433 0.063,-8.162 -1.25,-8.526 -2.822,-8.526 c -2.092,0 -3.754,0.652 -4.991,1.957 -1.236,1.303 -1.851,3.002 -1.851,5.091 0,2.039 0.635,3.728 1.904,5.068 1.272,1.339 2.914,2.008 4.938,2.008 2.123,0 3.74,-0.766 4.845,-2.299 1.106,-1.533 1.661,-3.41 1.661,-5.632 l -9.668,0 z"
             style="fill:#ffffff;fill-opacity:1;fill-rule:evenodd;stroke:none"
             id="path384" /></g><g
           id="g386"
           transform="translate(598.5352,120.1123)"><path
             d="m 0,0 3.498,0 0,-2.488 c 0.363,0.83 0.949,1.512 1.764,2.048 0.81,0.535 1.666,0.803 2.564,0.803 0.278,0 0.545,-0.043 0.803,-0.13 l 0,-3.421 c -0.379,0.087 -0.818,0.13 -1.32,0.13 -1.262,0 -2.184,-0.397 -2.76,-1.191 C 3.971,-5.045 3.68,-6.081 3.68,-7.359 l 0,-6.039 -3.68,0 L 0,0 z"
             style="fill:#ffffff;fill-opacity:1;fill-rule:evenodd;stroke:none"
             id="path388" /></g><path
           d="m 613.168,122.16 -3.68,0 0,3.031 3.68,0 0,-3.031 z m -3.68,-2.255 3.68,0 0,-13.191 -3.68,0 0,13.191 z"
           style="fill:#ffffff;fill-opacity:1;fill-rule:evenodd;stroke:none"
           id="path390" /><g
           id="g392"
           transform="translate(623.3496,109.124)"><path
             d="M 0,0 C 1.158,0 1.99,0.407 2.502,1.218 3.01,2.03 3.266,3.05 3.266,4.276 3.266,5.521 3.014,6.548 2.514,7.36 2.014,8.172 1.174,8.579 0,8.579 -1.141,8.579 -1.965,8.164 -2.475,7.334 -2.984,6.506 -3.24,5.486 -3.24,4.276 -3.24,3.05 -2.99,2.03 -2.488,1.218 -1.986,0.407 -1.158,0 0,0 m 0,11.352 c 2.125,0 3.814,-0.644 5.066,-1.931 C 6.318,8.133 6.945,6.419 6.945,4.276 6.945,2.152 6.311,0.445 5.039,-0.842 3.77,-2.13 2.092,-2.772 0,-2.772 c -2.109,0 -3.787,0.642 -5.041,1.93 -1.252,1.287 -1.879,2.994 -1.879,5.118 0,2.143 0.627,3.857 1.879,5.145 1.254,1.287 2.932,1.931 5.041,1.931"
             style="fill:#ffffff;fill-opacity:1;fill-rule:evenodd;stroke:none"
             id="path394" /></g><g
           id="g396"
           transform="translate(633.4648,120.1123)"><path
             d="m 0,0 3.498,0 0,-2.488 c 0.363,0.83 0.951,1.512 1.764,2.048 0.812,0.535 1.668,0.803 2.564,0.803 0.278,0 0.545,-0.043 0.803,-0.13 l 0,-3.421 c -0.379,0.087 -0.818,0.13 -1.32,0.13 -1.262,0 -2.18,-0.397 -2.76,-1.191 C 3.971,-5.045 3.68,-6.081 3.68,-7.359 l 0,-6.039 -3.68,0 L 0,0 z"
             style="fill:#ffffff;fill-opacity:1;fill-rule:evenodd;stroke:none"
             id="path398" /></g><path
           d="m 166.986,141.732 86.756,0 0,-86.752 -86.756,0 0,86.752 z"
           style="fill:#2b94c9;fill-opacity:1;fill-rule:evenodd;stroke:none"
           id="path400" /><g
           id="g402"
           transform="translate(226.6343,70.0703)"><path
             d="m 0,0 c -4.131,0 -8.227,-1.038 -12.561,-2.141 -4.397,-1.118 -8.944,-2.275 -13.608,-2.275 -4.62,0 -9.257,0.955 -13.74,1.875 -2.162,0.446 -4.361,0.895 -6.568,1.241 3.206,-3.258 6.931,-6.001 11.045,-8.091 2.365,-0.383 4.702,-0.642 7.053,-0.642 4.368,0 8.771,1.117 13.03,2.201 4.283,1.089 8.712,2.215 13.14,2.215 2.772,0 5.523,-0.513 8.181,-1.009 0.416,-0.08 0.833,-0.155 1.252,-0.229 2.212,1.475 4.277,3.154 6.169,5.011 -1.906,0.181 -3.797,0.533 -5.636,0.875 C 5.083,-0.47 2.556,0 0,0 m 25.929,32.012 -1.905,0.446 c -0.902,-1.536 -1.943,-2.982 -3.111,-4.322 l 2.881,-5.249 -2.484,-2.685 -5.19,3.547 c -0.987,-0.716 -2.023,-1.37 -3.101,-1.962 l 1.628,-6.383 -3.456,-1.547 -3.829,5.574 C 6.615,19.208 5.852,19.015 5.078,18.853 L 3.151,18.22 1.716,11.717 l -3.862,0.117 -0.931,6.284 -1.403,0.32 c -1.086,0.13 -2.151,0.318 -3.197,0.562 l -3.718,-5.754 -3.65,1.52 1.455,6.311 c -1.286,0.618 -2.519,1.326 -3.688,2.119 l -5.38,-3.554 -2.591,2.282 2.898,5.63 c -0.974,1.056 -1.862,2.185 -2.666,3.376 l -6.084,-1.537 -1.697,3.438 4.902,3.583 c -0.552,1.408 -0.998,2.867 -1.318,4.374 l -6.61,0.637 -0.074,4.277 6.075,1.382 c 0.022,1.417 0.147,2.806 0.371,4.164 l -6.311,3.238 1.193,3.917 7,-0.7 c 0.541,1.267 1.259,2.783 1.761,3.488 l -4.579,4.585 2.161,2.972 6.306,-1.913 2.417,1.997 -0.411,1.702 c -2.673,-0.317 -5.876,-0.861 -8.438,-1.579 l -0.004,-0.006 c -17.5,-5.2 -30.266,-21.4 -30.266,-40.581 0,-6.96 1.681,-13.526 4.659,-19.319 2.303,0.309 4.782,0.565 6.73,0.579 l 3.034,0.018 c 4.731,0 9.425,-0.966 13.964,-1.894 4.568,-0.939 8.885,-1.828 13.267,-1.828 4.366,0 8.769,1.118 13.028,2.201 4.282,1.089 8.715,2.215 13.144,2.215 2.77,0 5.522,-0.512 8.179,-1.009 1.267,-0.237 2.559,-0.475 3.846,-0.659 3.1,5.884 4.856,12.585 4.856,19.696 0,1.228 -0.051,2.443 -0.155,3.644 M 9.203,8.093 C 5.067,8.093 0.971,7.053 -3.365,5.947 -7.76,4.832 -12.31,3.674 -16.969,3.674 c -4.621,0 -9.257,0.956 -13.742,1.876 -4.425,0.91 -8.998,1.849 -13.481,1.849 l -3.026,-0.021 c -1.594,-0.011 -3.608,-0.2 -5.577,-0.445 1.174,-1.996 2.505,-3.888 3.981,-5.655 3.173,-0.352 6.311,-0.987 9.377,-1.62 4.571,-0.936 8.889,-1.825 13.268,-1.825 4.37,0 8.771,1.118 13.029,2.201 4.284,1.089 8.713,2.215 13.14,2.215 2.772,0 5.526,-0.515 8.187,-1.011 2.156,-0.4 4.387,-0.816 6.545,-0.934 0.232,-0.013 0.454,-0.027 0.67,-0.037 1.735,1.95 3.29,4.061 4.646,6.31 -1.044,0.166 -2.076,0.356 -3.095,0.545 -2.672,0.499 -5.196,0.971 -7.75,0.971 M -14.77,-10.01 c -4.323,-1.096 -8.787,-2.23 -13.361,-2.267 3.763,-1.097 7.744,-1.687 11.861,-1.687 7.488,0 14.517,1.943 20.62,5.35 -2.24,0.408 -4.39,0.747 -6.559,0.747 -4.134,0 -8.228,-1.04 -12.561,-2.143"
             style="fill:#ffffff;fill-opacity:1;fill-rule:nonzero;stroke:none"
             id="path404" /></g></g></g></g></svg>